<svg xmlns="http://www.w3.org/2000/svg" xmlns:xlink="http://www.w3.org/1999/xlink" width="48.316" height="46.372" viewBox="0 0 48.316 46.372">
  <defs>
    <linearGradient id="linear-gradient" x1="0.5" x2="0.5" y2="1" gradientUnits="objectBoundingBox">
      <stop offset="0" stop-color="#ad8752"/>
      <stop offset="1" stop-color="#ddbd7c"/>
    </linearGradient>
  </defs>
  <g id="svgexport-6_-_2022-05-16T105502.758" data-name="svgexport-6 - 2022-05-16T105502.758" transform="translate(-3 -3.414)">
    <g id="Layer_9" data-name="Layer 9" transform="translate(3 3.414)">
      <path id="Path_1120" data-name="Path 1120" d="M27.48,25H5.111l.763,7.247H26.716Z" transform="translate(-3.411 -7.618)" fill="url(#linear-gradient)"/>
      <path id="Path_1121" data-name="Path 1121" d="M28,40.805v.322a20.685,20.685,0,0,0,3.654,11.757H45.283a20.685,20.685,0,0,0,3.654-11.757v-.322A.805.805,0,0,0,48.132,40H28.805A.805.805,0,0,0,28,40.805Zm10.468,1.611h1.611v1.611H38.468Zm-8.053,0h6.442v1.611H30.416Z" transform="translate(-7.868 -10.539)" fill="url(#linear-gradient)"/>
      <rect id="Rectangle_2564" data-name="Rectangle 2564" width="25.768" height="3.221" rx="1" transform="translate(0 12.551)" fill="url(#linear-gradient)"/>
      <path id="Path_1122" data-name="Path 1122" d="M19.611,8.717a.805.805,0,0,1,.236-.569L23.3,4.691,22.026,3.414,18,7.44v3.693h1.611Z" transform="translate(-5.921 -3.414)" fill="url(#linear-gradient)"/>
      <path id="Path_1123" data-name="Path 1123" d="M27.547,15.805A.805.805,0,0,0,26.742,15H5.805A.805.805,0,0,0,5,15.805v.805H27.547Z" transform="translate(-3.389 -5.67)" fill="url(#linear-gradient)"/>
      <circle id="Ellipse_64" data-name="Ellipse 64" cx="3.221" cy="3.221" r="3.221" transform="translate(9.663 29.461)" fill="url(#linear-gradient)"/>
      <path id="Path_1124" data-name="Path 1124" d="M48.742,58H27.805a.805.805,0,0,0-.805.805,1.611,1.611,0,0,0,1.611,1.611H47.937a1.611,1.611,0,0,0,1.611-1.611A.805.805,0,0,0,48.742,58Z" transform="translate(-7.674 -14.044)" fill="url(#linear-gradient)"/>
      <path id="Path_1125" data-name="Path 1125" d="M24.137,55.611h1.728c-.322-.527-.631-1.063-.909-1.611H8.163l.366,3.474a2.411,2.411,0,0,0,2.4,2.163H22.169a3.188,3.188,0,0,1-.448-1.611,2.416,2.416,0,0,1,2.416-2.416Z" transform="translate(-4.005 -13.265)" fill="url(#linear-gradient)"/>
      <path id="Path_1126" data-name="Path 1126" d="M22.158,40.348v-.322a2.416,2.416,0,0,1,2.416-2.416H26.6L26.773,36H6.269L7.625,48.884H23.844a22.316,22.316,0,0,1-1.686-8.536Zm-5.637,6.925a4.832,4.832,0,1,1,4.832-4.832A4.832,4.832,0,0,1,16.521,47.274Z" transform="translate(-3.637 -9.76)" fill="url(#linear-gradient)"/>
      <path id="Path_1127" data-name="Path 1127" d="M36.805,29.555a2.749,2.749,0,0,0,0,3.888l1.041,1.041,1.139-1.139L37.944,32.3a1.139,1.139,0,0,1,0-1.611l.472-.472a2.749,2.749,0,0,0,0-3.888l-1.041-1.041-1.139,1.139,1.041,1.041a1.139,1.139,0,0,1,0,1.611Z" transform="translate(-9.426 -7.675)" fill="url(#linear-gradient)"/>
      <path id="Path_1128" data-name="Path 1128" d="M44.805,29.555a2.749,2.749,0,0,0,0,3.888l1.041,1.041,1.139-1.139L45.944,32.3a1.139,1.139,0,0,1,0-1.611l.472-.472a2.749,2.749,0,0,0,0-3.888l-1.041-1.041-1.139,1.139,1.041,1.041a1.139,1.139,0,0,1,0,1.611Z" transform="translate(-10.984 -7.675)" fill="url(#linear-gradient)"/>
      <path id="Path_1129" data-name="Path 1129" d="M58.887,41H55.666v.322c0,.432-.02.862-.044,1.288h3.265a.805.805,0,0,1,.805.805v3.221a.805.805,0,0,1-.805.805H54.817c-.155.544-.335,1.08-.531,1.611h4.6A2.416,2.416,0,0,0,61.3,46.637V43.416A2.416,2.416,0,0,0,58.887,41Z" transform="translate(-12.987 -10.733)" fill="url(#linear-gradient)"/>
    </g>
  </g>
</svg>
