<svg xmlns="http://www.w3.org/2000/svg" xmlns:xlink="http://www.w3.org/1999/xlink" width="47.248" height="41.318" viewBox="0 0 47.248 41.318">
  <defs>
    <linearGradient id="linear-gradient" x1="0.5" x2="0.5" y2="1" gradientUnits="objectBoundingBox">
      <stop offset="0" stop-color="#ad8752"/>
      <stop offset="1" stop-color="#ddbd7c"/>
    </linearGradient>
  </defs>
  <g id="svgexport-6_-_2022-05-16T105320.951" data-name="svgexport-6 - 2022-05-16T105320.951" transform="translate(0)">
    <path id="Path_1118" data-name="Path 1118" d="M217.908,0H197.15A4.349,4.349,0,0,0,192.8,4.349V14.574l3.39,1.685,1.693-3.388a4.153,4.153,0,1,1,7.429,3.714l-3.018,6.038a6.305,6.305,0,0,1-.216,2.385h1.993L198.815,39.46a1.384,1.384,0,1,0,2.6.946l5.6-15.4h.97l5.657,15.4a1.384,1.384,0,0,0,2.6-.954l-5.306-14.449h6.973a4.349,4.349,0,0,0,4.349-4.349V4.349A4.349,4.349,0,0,0,217.908,0Zm-2.966,19.078h-6.211a1.384,1.384,0,1,1,0-2.768h6.211a1.384,1.384,0,0,1,0,2.768Zm0-5.19h-6.211a1.384,1.384,0,1,1,0-2.768h6.211a1.384,1.384,0,0,1,0,2.768Zm0-5.189H200.116a1.384,1.384,0,0,1,0-2.768h14.826a1.384,1.384,0,0,1,0,2.768Zm0,0" transform="translate(-175.009)" fill="url(#linear-gradient)"/>
    <path id="Path_1119" data-name="Path 1119" d="M24.355,51.646a3.579,3.579,0,0,0,.037-2.2l3.435-6.87a1.384,1.384,0,0,0-2.476-1.238L22.422,47.2l-6.555-3.261c-1.994-.992-3.417-1.881-5.845-1.881H8.8a6.03,6.03,0,1,0-4.39-1.9,6.014,6.014,0,0,0,4.39,1.9,8.842,8.842,0,0,0-6.218,2.575A8.728,8.728,0,0,0,0,50.856V55.3a4.357,4.357,0,0,0,2.965,4.124v7.737A1.384,1.384,0,0,0,4.35,68.549h8.9a1.384,1.384,0,0,0,1.384-1.384V51.612l4.432,2.216a3.792,3.792,0,0,0,5.289-2.166l.005-.016Zm0,0" transform="translate(0 -27.231)" fill="url(#linear-gradient)"/>
  </g>
</svg>
